<svg width="81" height="80" viewBox="0 0 81 80" fill="none" xmlns="http://www.w3.org/2000/svg">
<path d="M7.16699 22.5C7.16699 20.5109 7.95717 18.6032 9.36369 17.1967C10.7702 15.7902 12.6779 15 14.667 15H66.3337C68.3228 15 70.2304 15.7902 71.637 17.1967C73.0435 18.6032 73.8337 20.5109 73.8337 22.5V41.1267C72.4035 39.3422 70.7189 37.7777 68.8337 36.4833V22.5C68.8337 21.837 68.5703 21.2011 68.1014 20.7322C67.6326 20.2634 66.9967 20 66.3337 20H14.667C14.004 20 13.3681 20.2634 12.8992 20.7322C12.4304 21.2011 12.167 21.837 12.167 22.5V57.5C12.167 58.88 13.287 60 14.667 60H33.4603C33.8089 61.7244 34.357 63.4024 35.0937 65H14.667C12.6779 65 10.7702 64.2098 9.36369 62.8033C7.95717 61.3968 7.16699 59.4891 7.16699 57.5V22.5Z" fill="#5BBD72"/>
<path d="M61.3337 32.5H19.667C19.004 32.5 18.3681 32.2366 17.8992 31.7678C17.4304 31.2989 17.167 30.663 17.167 30C17.167 29.337 17.4304 28.7011 17.8992 28.2322C18.3681 27.7634 19.004 27.5 19.667 27.5H61.3337C61.9967 27.5 62.6326 27.7634 63.1014 28.2322C63.5703 28.7011 63.8337 29.337 63.8337 30C63.8337 30.663 63.5703 31.2989 63.1014 31.7678C62.6326 32.2366 61.9967 32.5 61.3337 32.5ZM36.9837 42.5C38.227 40.6906 39.7195 39.0656 41.417 37.6733C41.124 37.5621 40.8137 37.5035 40.5003 37.5H19.667C19.004 37.5 18.3681 37.7634 17.8992 38.2322C17.4304 38.7011 17.167 39.337 17.167 40C17.167 40.663 17.4304 41.2989 17.8992 41.7678C18.3681 42.2366 19.004 42.5 19.667 42.5H36.9837Z" fill="#5BBD72"/>
<path fill-rule="evenodd" clip-rule="evenodd" d="M69.3571 50.9399C69.3571 54.9932 67.5571 58.6299 64.7171 61.0932V70.8332C64.7168 71.318 64.5755 71.7921 64.3105 72.198C64.0455 72.6039 63.6682 72.924 63.2245 73.1193C62.7809 73.3146 62.29 73.3768 61.8117 73.2982C61.3334 73.2196 60.8883 73.0036 60.5305 72.6766L55.9205 68.4632L51.3138 72.6766C50.956 73.0036 50.5109 73.2196 50.0325 73.2982C49.5542 73.3768 49.0634 73.3146 48.6197 73.1193C48.1761 72.924 47.7988 72.6039 47.5338 72.198C47.2688 71.7921 47.1275 71.318 47.1271 70.8332V61.1032C45.4249 59.6309 44.1198 57.7547 43.3315 55.6466C42.5433 53.5385 42.2972 51.2662 42.6158 49.0383C42.9344 46.8104 43.8076 44.6981 45.1551 42.8955C46.5026 41.0929 48.2814 39.6577 50.328 38.7215C52.3747 37.7853 54.6237 37.3783 56.8687 37.5376C59.1136 37.697 61.2826 38.4178 63.1765 39.6337C65.0704 40.8496 66.6285 42.5218 67.7078 44.4967C68.7872 46.4716 69.3531 48.686 69.3538 50.9366M55.9138 42.4966C54.7916 42.4743 53.6761 42.6761 52.6328 43.0901C51.5895 43.5041 50.6393 44.1221 49.8377 44.9079C49.0361 45.6937 48.3994 46.6315 47.9647 47.6664C47.53 48.7012 47.3061 49.8124 47.3061 50.9349C47.3061 52.0574 47.53 53.1686 47.9647 54.2035C48.3994 55.2383 49.0361 56.1761 49.8377 56.9619C50.6393 57.7477 51.5895 58.3657 52.6328 58.7797C53.6761 59.1938 54.7916 59.3956 55.9138 59.3732C58.1227 59.3293 60.2264 58.421 61.7731 56.8433C63.3197 55.2656 64.1861 53.1443 64.1861 50.9349C64.1861 48.7255 63.3197 46.6042 61.7731 45.0265C60.2264 43.4488 58.1227 42.5405 55.9138 42.4966Z" fill="#5BBD72"/>
</svg>
