<svg width="73" height="73" viewBox="0 0 73 73" fill="none" xmlns="http://www.w3.org/2000/svg">
<mask id="mask0_647_78598" style="mask-type:alpha" maskUnits="userSpaceOnUse" x="0" y="0" width="73" height="73">
<rect x="0.0908203" y="0.181641" width="72.7273" height="72.7273" fill="#D9D9D9"/>
</mask>
<g mask="url(#mask0_647_78598)">
<path d="M26.693 30.7179C28.7056 30.7179 30.8241 30.9404 33.0483 31.3853C35.2726 31.8303 37.3637 32.5421 39.3218 33.5209C41.2794 34.4997 42.9809 35.7576 44.4263 37.2944C45.8718 38.8308 46.84 40.7033 47.3309 42.9118C47.5274 43.7684 47.3496 44.5338 46.7976 45.2081C46.246 45.8818 45.5334 46.2187 44.6597 46.2187H8.7271C7.85336 46.2187 7.14048 45.8818 6.58846 45.2081C6.03694 44.5338 5.85942 43.7684 6.05588 42.9118C6.54679 40.7033 7.5228 38.8308 8.98391 37.2944C10.4445 35.7576 12.1539 34.4997 14.1119 33.5209C16.07 32.5421 18.1534 31.8303 20.3619 31.3853C22.5705 30.9404 24.6809 30.7179 26.693 30.7179ZM7.57937 57.2914C6.93543 57.2914 6.39553 57.0735 5.95967 56.6376C5.52432 56.2017 5.30664 55.6616 5.30664 55.0172C5.30664 54.3732 5.52432 53.8336 5.95967 53.3982C6.39553 52.9634 6.93543 52.7459 7.57937 52.7459H45.8074C46.4513 52.7459 46.9912 52.9639 47.4271 53.3997C47.8625 53.8351 48.0801 54.375 48.0801 55.0194C48.0801 55.6639 47.8625 56.2035 47.4271 56.6384C46.9912 57.0737 46.4513 57.2914 45.8074 57.2914H7.57937ZM7.57937 68.3634C6.93543 68.3634 6.39553 68.1454 5.95967 67.7096C5.52432 67.2737 5.30664 66.7338 5.30664 66.0899C5.30664 65.4454 5.52432 64.9058 5.95967 64.4709C6.39553 64.0356 6.93543 63.8179 7.57937 63.8179H45.8074C46.4513 63.8179 46.9912 64.0358 47.4271 64.4717C47.8625 64.9076 48.0801 65.4474 48.0801 66.0914C48.0801 66.7358 47.8625 67.2755 47.4271 67.7103C46.9912 68.1457 46.4513 68.3634 45.8074 68.3634H7.57937ZM59.9741 68.3634H56.8794C56.1036 68.3634 55.4534 68.1007 54.9286 67.5755C54.4034 67.0507 54.1407 66.4002 54.1407 65.624V46.2187C54.1407 41.2692 52.4478 36.9997 49.0619 33.4103C45.6761 29.8204 41.5503 27.324 36.6847 25.9209C36.17 25.7896 35.7443 25.527 35.4074 25.1331C35.071 24.7391 34.8549 24.2871 34.7589 23.777L34.2983 20.5194C34.1973 19.6962 34.4231 18.9757 34.9756 18.3581C35.5281 17.7399 36.2152 17.4308 37.0369 17.4308H48.4885V7.5823C48.4885 6.93836 48.7061 6.39871 49.1415 5.96336C49.5774 5.5275 50.1175 5.30957 50.7619 5.30957C51.4059 5.30957 51.9455 5.5275 52.3809 5.96336C52.8157 6.39871 53.0332 6.93836 53.0332 7.5823V17.4308H64.5892C65.4109 17.4308 66.0981 17.7275 66.6506 18.3209C67.2036 18.9144 67.4296 19.6219 67.3286 20.4437L62.7127 65.8982C62.6198 66.5831 62.318 67.1651 61.8074 67.6444C61.2963 68.1237 60.6852 68.3634 59.9741 68.3634Z" fill="#F3A6B8"/>
</g>
</svg>
