<svg width="40" height="48" viewBox="0 0 40 48" fill="none" xmlns="http://www.w3.org/2000/svg">
<path d="M35.65 38.15C35.36 38.74 35 39.26 34.57 39.73C29.61 45.08 19.4 45.32 11.82 40.27C10.47 39.37 8.56005 37.85 6.92005 35.6C7.63005 34.56 8.44005 33.57 9.33005 32.64C9.39005 32.59 9.45005 32.54 9.50005 32.49C9.76005 32.22 10.02 31.95 10.29 31.69C11.89 30.18 13.72 28.85 15.75 27.74C17.17 26.96 18.6201 26.34 20.0501 25.87C21.5001 25.43 23.02 25.11 24.59 24.93C27.39 24.69 29.98 25.14 32.07 26.29C36.17 28.56 37.7801 33.89 35.6601 38.17M19.9101 22.45C15.4601 23.67 11.5 25.94 8.10004 29.25C7.01004 30.28 6.01005 31.39 5.11005 32.55C3.22005 28.41 2.55005 22.65 5.56005 14.93C5.89005 14.08 5.49005 13.11 4.66005 12.76C3.83005 12.42 2.89005 12.83 2.56005 13.68C0.0300465 20.16 -0.399952 26.18 1.28005 31.57C1.73005 33 2.32004 34.37 3.05004 35.66C1.39004 38.6 0.340043 41.82 0.0100433 45.15C-0.0799567 46.04 0.500049 46.88 1.36005 47.02C2.29005 47.17 3.13005 46.49 3.22005 45.54C3.45005 43.17 4.11005 40.86 5.14005 38.69C6.52005 40.36 8.17005 41.84 10.06 43.1C14.11 45.79 18.95 47.26 23.74 47.26C23.89 47.26 24.05 47.26 24.2 47.26C29.37 47.16 33.88 45.31 36.9 42.06C37.56 41.35 38.09 40.58 38.53 39.7C41.4501 33.82 39.23 26.5 33.6 23.37C32.39 22.7 31.05 22.22 29.62 21.92C34.62 17.77 36.3601 12.05 33.9401 6.63001C32.5801 3.58001 29.9901 1.48001 26.4401 0.560008C21.5801 -0.699992 15.67 0.500008 11.74 3.55001C11.03 4.10001 10.89 5.15001 11.42 5.88001C11.96 6.61001 12.97 6.76001 13.68 6.21001C16.82 3.77001 21.74 2.78001 25.64 3.79001C27.43 4.25001 29.81 5.36001 30.99 8.02001C32.56 11.52 31.7 15.16 28.85 18.16C26.99 20.11 24.59 21.41 22 21.99L19.9 22.46L19.9101 22.45Z" fill="#84B8E3"/>
<path d="M6.62 3.41C6.62 5.29 5.14 6.82 3.31 6.82C1.48 6.82 0 5.29 0 3.41C0 1.53 1.48 0 3.31 0C5.14 0 6.62 1.53 6.62 3.41Z" fill="#F7B2C2"/>
</svg>
