<svg width="165" height="48" viewBox="0 0 165 48" fill="none" xmlns="http://www.w3.org/2000/svg">
<g clip-path="url(#clip0_81_4926)">
<mask id="mask0_81_4926" style="mask-type:luminance" maskUnits="userSpaceOnUse" x="0" y="0" width="165" height="48">
<path d="M164.75 0H0V47.24H164.75V0Z" fill="white"/>
</mask>
<g mask="url(#mask0_81_4926)">
<path d="M160.59 38.15C160.3 38.74 159.94 39.26 159.51 39.73C154.55 45.08 144.34 45.32 136.76 40.27C135.41 39.37 133.5 37.85 131.86 35.6C132.57 34.56 133.38 33.57 134.27 32.64C134.33 32.59 134.39 32.54 134.44 32.49C134.7 32.22 134.96 31.95 135.23 31.69C136.83 30.18 138.66 28.85 140.69 27.74C142.11 26.96 143.56 26.34 144.99 25.87C146.44 25.43 147.96 25.11 149.53 24.93C152.33 24.69 154.92 25.14 157.01 26.29C161.11 28.56 162.72 33.89 160.6 38.17M144.85 22.45C140.4 23.67 136.44 25.94 133.04 29.25C131.95 30.28 130.95 31.39 130.05 32.55C128.16 28.41 127.49 22.65 130.5 14.93C130.83 14.08 130.43 13.11 129.6 12.76C128.77 12.42 127.83 12.83 127.5 13.68C124.97 20.16 124.54 26.18 126.22 31.57C126.67 33 127.26 34.37 127.99 35.66C126.33 38.6 125.28 41.82 124.95 45.15C124.86 46.04 125.44 46.88 126.3 47.02C127.23 47.17 128.07 46.49 128.16 45.54C128.39 43.17 129.05 40.86 130.08 38.69C131.46 40.36 133.11 41.84 135 43.1C139.05 45.79 143.89 47.26 148.68 47.26C148.83 47.26 148.99 47.26 149.14 47.26C154.31 47.16 158.82 45.31 161.84 42.06C162.5 41.35 163.03 40.58 163.47 39.7C166.39 33.82 164.17 26.5 158.54 23.37C157.33 22.7 155.99 22.22 154.56 21.92C159.56 17.77 161.3 12.05 158.88 6.62998C157.52 3.57998 154.93 1.47998 151.38 0.559977C146.52 -0.700023 140.61 0.499977 136.68 3.54998C135.97 4.09998 135.83 5.14998 136.36 5.87998C136.9 6.60998 137.91 6.75998 138.62 6.20998C141.76 3.76998 146.68 2.77998 150.58 3.78998C152.37 4.24998 154.75 5.35998 155.93 8.01998C157.5 11.52 156.64 15.16 153.79 18.16C151.93 20.11 149.53 21.41 146.94 21.99L144.84 22.46L144.85 22.45Z" fill="#272F72"/>
<path d="M131.56 3.41C131.56 5.29 130.08 6.82 128.25 6.82C126.42 6.82 124.94 5.29 124.94 3.41C124.94 1.53 126.42 0 128.25 0C130.08 0 131.56 1.53 131.56 3.41Z" fill="#F7B2C2"/>
<path d="M21.5703 27.11C22.4003 27.11 23.1003 26.48 23.2103 25.63V25.59C23.3503 24.57 22.5803 23.66 21.5803 23.66C20.7603 23.66 20.0603 24.29 19.9403 25.13V25.17C19.8003 26.2 20.5703 27.11 21.5703 27.11Z" fill="#272F72"/>
<path d="M25.8301 27.11C26.6601 27.11 27.3601 26.48 27.4701 25.63V25.59C27.6101 24.57 26.8401 23.66 25.8401 23.66C25.0201 23.66 24.3201 24.29 24.2001 25.13V25.17C24.0601 26.2 24.8301 27.11 25.8301 27.11Z" fill="#272F72"/>
<path d="M109.58 36.8H104.06V31.8H109.58C110.92 31.8 112 32.92 112 34.3C112 35.68 110.91 36.8 109.58 36.8ZM83.1595 36.8H79.7895C78.4495 36.8 77.3695 35.68 77.3695 34.3C77.3695 32.92 78.4595 31.8 79.7895 31.8H83.1595C84.4995 31.8 85.5795 32.92 85.5795 34.3C85.5795 35.68 84.4895 36.8 83.1595 36.8ZM109.58 28.92H104.06V28.87C104.06 28.08 103.44 27.43 102.67 27.43C101.9 27.43 101.27 28.07 101.27 28.87V28.92H95.7495C92.8795 28.92 90.5395 31.33 90.5395 34.3C90.5395 35.2 90.7595 36.05 91.1395 36.8H87.8595C87.8595 36.8 87.7995 36.8 87.7595 36.8C88.1495 36.05 88.3695 35.2 88.3695 34.29C88.3695 31.33 86.0295 28.91 83.1595 28.91H79.7895C76.9095 28.91 74.5795 31.32 74.5795 34.29C74.5795 35.19 74.7995 36.04 75.1795 36.79H68.9395C68.9395 36.79 68.8995 36.79 68.8695 36.79V33.76C68.8695 32.97 68.2495 32.32 67.4795 32.32C66.7095 32.32 66.0795 32.96 66.0795 33.76V38.43C66.0795 39.81 64.9895 40.93 63.6595 40.93C62.8895 40.93 62.2695 41.57 62.2695 42.37C62.2695 43.17 62.8895 43.81 63.6595 43.81C66.1295 43.81 68.1995 42.03 68.7295 39.65C68.7995 39.66 68.8695 39.67 68.9395 39.67H83.1595C84.4195 39.67 85.5795 39.2 86.4895 38.43C86.5895 39.13 87.1595 39.67 87.8695 39.67H95.7595C95.8595 39.67 95.9495 39.67 96.0395 39.64C96.1295 39.66 96.2195 39.67 96.3195 39.67H98.3595C99.1295 39.67 99.7595 39.03 99.7595 38.23C99.7595 37.43 99.1395 36.79 98.3595 36.79H96.3195C96.2195 36.79 96.1295 36.8 96.0395 36.82C95.9495 36.8 95.8595 36.79 95.7595 36.79C94.4195 36.79 93.3395 35.67 93.3395 34.29C93.3395 32.91 94.4295 31.79 95.7595 31.79H101.28V38.23C101.28 39.02 101.9 39.67 102.68 39.67H109.59C112.46 39.67 114.8 37.26 114.8 34.29C114.8 31.32 112.46 28.91 109.59 28.91" fill="#272F72"/>
<path d="M49.83 36.8H44.31V31.8H49.83C51.17 31.8 52.25 32.92 52.25 34.3C52.25 35.68 51.16 36.8 49.83 36.8ZM7.12 34.3C7.12 32.92 8.21 31.8 9.54 31.8H12.91C14.25 31.8 15.33 32.92 15.33 34.3C15.33 35.68 14.24 36.8 12.91 36.8H9.54C8.2 36.8 7.12 35.68 7.12 34.3ZM49.83 28.92H44.31V28.87C44.31 28.08 43.69 27.43 42.92 27.43C42.15 27.43 41.52 28.07 41.52 28.87V28.92H36C33.13 28.92 30.79 31.33 30.79 34.3C30.79 35.2 31.01 36.05 31.39 36.8H25.83C25.75 36.8 25.66 36.81 25.58 36.83C25.97 36.08 26.19 35.22 26.19 34.31V30.37C26.19 29.58 25.57 28.93 24.8 28.93C24.03 28.93 23.4 29.57 23.4 30.37V34.31C23.4 35.69 22.31 36.81 20.98 36.81H17.52C17.9 36.06 18.12 35.21 18.12 34.31C18.12 31.35 15.78 28.93 12.91 28.93H5.21C2.34 28.93 0 31.34 0 34.31V42.39C0 43.18 0.62 43.83 1.39 43.83C2.16 43.83 2.79 43.19 2.79 42.39V34.31C2.79 33.03 3.73 31.98 4.93 31.83C4.55 32.57 4.34 33.41 4.34 34.31C4.34 37.27 6.68 39.69 9.55 39.69H12.92C13.18 39.69 13.43 39.66 13.68 39.63C13.8 39.67 13.93 39.69 14.07 39.69H20.98C22.31 39.69 23.52 39.17 24.44 38.33C24.48 39.09 25.08 39.69 25.83 39.69H38.05C38.82 39.69 39.44 39.05 39.44 38.25C39.44 37.45 38.82 36.81 38.05 36.81H36.01C34.67 36.81 33.59 35.69 33.59 34.31C33.59 32.93 34.68 31.81 36.01 31.81H41.53V38.25C41.53 39.04 42.15 39.69 42.93 39.69H49.84C52.71 39.69 55.05 37.28 55.05 34.31C55.05 31.34 52.71 28.93 49.84 28.93" fill="#272F72"/>
<path d="M60.0396 25.54C59.2696 25.54 58.6396 26.18 58.6396 26.98V38.24C58.6396 39.03 59.2596 39.68 60.0396 39.68C60.8196 39.68 61.4296 39.04 61.4296 38.24V26.98C61.4296 26.19 60.8096 25.54 60.0396 25.54Z" fill="#272F72"/>
</g>
</g>
<defs>
<clipPath id="clip0_81_4926">
<rect width="165" height="48" fill="white"/>
</clipPath>
</defs>
</svg>
