<svg width="30" height="30" viewBox="0 0 30 30" fill="none" xmlns="http://www.w3.org/2000/svg">
<g filter="url(#filter0_d_647_78698)">
<path d="M18.8723 9.79142C18.8729 9.9297 18.8324 10.0651 18.756 10.1803C18.6796 10.2955 18.5706 10.3855 18.443 10.4387C18.3153 10.4919 18.1747 10.5059 18.0391 10.4791C17.9034 10.4523 17.7788 10.3858 17.681 10.288C17.5832 10.1902 17.5167 10.0656 17.4899 9.9299C17.463 9.79424 17.4771 9.65367 17.5303 9.52603C17.5835 9.39839 17.6735 9.28943 17.7887 9.21298C17.9039 9.13654 18.0393 9.09605 18.1776 9.09667C18.2688 9.09667 18.3591 9.11464 18.4434 9.14955C18.5277 9.18447 18.6043 9.23564 18.6688 9.30015C18.7333 9.36467 18.7845 9.44126 18.8194 9.52555C18.8543 9.60984 18.8723 9.70018 18.8723 9.79142ZM17.9946 12.9147C17.9952 13.4933 17.8242 14.0591 17.5032 14.5405C17.1822 15.0219 16.7256 15.3972 16.1912 15.6191C15.6568 15.8409 15.0686 15.8993 14.5011 15.7868C13.9335 15.6743 13.4121 15.396 13.0027 14.987C12.5934 14.5781 12.3145 14.057 12.2014 13.4895C12.0883 12.9221 12.1461 12.3339 12.3673 11.7993C12.5886 11.2646 12.9635 10.8077 13.4445 10.4862C13.9256 10.1646 14.4912 9.99302 15.0698 9.99302C15.8447 9.99384 16.5877 10.3018 17.1359 10.8495C17.6842 11.3971 17.9929 12.1398 17.9946 12.9147ZM16.9431 12.9147C16.9431 12.5466 16.834 12.1869 16.6295 11.8808C16.425 11.5748 16.1344 11.3363 15.7943 11.1954C15.4543 11.0546 15.0801 11.0177 14.7191 11.0895C14.3582 11.1613 14.0266 11.3386 13.7663 11.5988C13.506 11.8591 13.3288 12.1907 13.257 12.5517C13.1852 12.9126 13.2221 13.2868 13.3629 13.6269C13.5038 13.9669 13.7423 14.2575 14.0483 14.462C14.3543 14.6665 14.7141 14.7757 15.0822 14.7757C15.3276 14.7773 15.5709 14.7304 15.7982 14.6376C16.0254 14.5448 16.232 14.408 16.4061 14.235C16.5802 14.062 16.7184 13.8563 16.8127 13.6297C16.907 13.4031 16.9556 13.1601 16.9555 12.9147H16.9431ZM20.9752 10.5668C20.9752 9.62512 20.6028 8.72163 19.9393 8.05343C19.2757 7.38523 18.3749 7.00655 17.4332 7H12.5668C11.6208 7 10.7136 7.37579 10.0447 8.0447C9.37579 8.7136 9 9.62084 9 10.5668V15.4332C9 16.3792 9.37579 17.2864 10.0447 17.9553C10.7136 18.6242 11.6208 19 12.5668 19H17.4332C18.3792 19 19.2864 18.6242 19.9553 17.9553C20.6242 17.2864 21 16.3792 21 15.4332L20.9752 10.5668ZM19.8307 15.3743C19.8307 16.0241 19.5726 16.6473 19.113 17.1068C18.6535 17.5664 18.0303 17.8245 17.3805 17.8245H12.6195C11.9697 17.8245 11.3465 17.5664 10.887 17.1068C10.4274 16.6473 10.1693 16.0241 10.1693 15.3743V10.6195C10.1701 9.97023 10.4286 9.3478 10.8881 8.88896C11.3475 8.43012 11.9702 8.1724 12.6195 8.1724H17.3743C18.0236 8.1724 18.6463 8.43012 19.1057 8.88896C19.5652 9.3478 19.8237 9.97023 19.8245 10.6195L19.8307 15.3743Z" fill="#404040"/>
<path d="M25.5 13C25.5 18.799 20.799 23.5 15 23.5C9.20101 23.5 4.5 18.799 4.5 13C4.5 7.20101 9.20101 2.5 15 2.5C20.799 2.5 25.5 7.20101 25.5 13Z" stroke="#404040"/>
</g>
<defs>
<filter id="filter0_d_647_78698" x="0" y="0" width="30" height="30" filterUnits="userSpaceOnUse" color-interpolation-filters="sRGB">
<feFlood flood-opacity="0" result="BackgroundImageFix"/>
<feColorMatrix in="SourceAlpha" type="matrix" values="0 0 0 0 0 0 0 0 0 0 0 0 0 0 0 0 0 0 127 0" result="hardAlpha"/>
<feOffset dy="2"/>
<feGaussianBlur stdDeviation="2"/>
<feComposite in2="hardAlpha" operator="out"/>
<feColorMatrix type="matrix" values="0 0 0 0 0 0 0 0 0 0 0 0 0 0 0 0 0 0 0.25 0"/>
<feBlend mode="normal" in2="BackgroundImageFix" result="effect1_dropShadow_647_78698"/>
<feBlend mode="normal" in="SourceGraphic" in2="effect1_dropShadow_647_78698" result="shape"/>
</filter>
</defs>
</svg>
