<svg width="60" height="60" viewBox="0 0 60 60" fill="none" xmlns="http://www.w3.org/2000/svg">
<path d="M24.6303 0.454102C20.5085 0.453141 16.458 1.53009 12.8809 3.57806C9.30385 5.62604 6.32451 8.57384 4.23858 12.1289C2.15265 15.684 1.03266 19.7228 0.98975 23.8444C0.946843 27.9661 1.98252 32.0273 3.99398 35.625L1.10307 43.1959C0.862453 43.8253 0.801416 44.5091 0.926774 45.1711C1.05213 45.8331 1.35895 46.4473 1.81301 46.9451C2.26707 47.4429 2.8505 47.8048 3.49823 47.9903C4.14595 48.1759 4.83249 48.1778 5.48126 47.9959L14.5249 45.4614C17.7285 46.975 21.2314 47.7491 24.7745 47.7263C28.3176 47.7035 31.8103 46.8845 34.9942 45.3297C38.178 43.775 40.9716 41.5243 43.1683 38.7442C45.3649 35.9641 46.9085 32.7257 47.6847 29.2686C48.4609 25.8115 48.45 22.2241 47.6527 18.7717C46.8554 15.3194 45.2921 12.0905 43.0785 9.32387C40.865 6.55723 38.0577 4.32364 34.8644 2.78833C31.6711 1.25302 28.1735 0.455277 24.6303 0.454102ZM24.6049 14.6396C23.3031 14.8941 21.8776 15.7377 20.7576 17.7159C20.6397 17.9236 20.482 18.1061 20.2935 18.2529C20.105 18.3997 19.8895 18.5079 19.6592 18.5714C19.4289 18.6348 19.1884 18.6523 18.9513 18.6229C18.7143 18.5934 18.4853 18.5175 18.2776 18.3996C18.0699 18.2816 17.8874 18.1239 17.7407 17.9354C17.5939 17.747 17.4857 17.5314 17.4222 17.3011C17.3587 17.0709 17.3412 16.8303 17.3707 16.5933C17.4002 16.3562 17.476 16.1273 17.594 15.9196C19.1976 13.0977 21.4776 11.545 23.9067 11.0723C26.1669 10.645 28.5046 11.116 30.4231 12.385C32.1831 13.5486 33.6049 15.4505 33.6485 17.7305C33.6958 20.1123 32.2485 22.2614 29.5794 23.8396C27.7685 24.9086 27.0631 25.6359 26.7613 26.1196C26.5067 26.5268 26.4485 26.8977 26.4485 27.7268C26.4485 28.209 26.257 28.6715 25.916 29.0125C25.575 29.3535 25.1126 29.545 24.6303 29.545C24.1481 29.545 23.6857 29.3535 23.3447 29.0125C23.0037 28.6715 22.8122 28.209 22.8122 27.7268C22.8122 26.7377 22.8631 25.5086 23.674 24.1996C24.4376 22.9741 25.7431 21.8832 27.7285 20.7086C29.674 19.5559 30.0267 18.4614 30.0158 17.8068C29.9976 17.0541 29.4994 16.1341 28.4158 15.4177C27.294 14.6751 25.928 14.3962 24.6049 14.6396ZM25.5394 38.6359C25.1813 38.6359 24.8266 38.5654 24.4958 38.4283C24.1649 38.2913 23.8642 38.0904 23.611 37.8371C23.3577 37.5839 23.1568 37.2832 23.0198 36.9523C22.8827 36.6214 22.8122 36.2668 22.8122 35.9086C22.8122 35.5505 22.8827 35.1959 23.0198 34.865C23.1568 34.5341 23.3577 34.2334 23.611 33.9802C23.8642 33.7269 24.1649 33.526 24.4958 33.389C24.8266 33.2519 25.1813 33.1814 25.5394 33.1814C26.2628 33.1814 26.9564 33.4687 27.4679 33.9802C27.9794 34.4916 28.2667 35.1853 28.2667 35.9086C28.2667 36.632 27.9794 37.3257 27.4679 37.8371C26.9564 38.3486 26.2628 38.6359 25.5394 38.6359ZM17.4885 50.4177C19.706 52.9981 22.4552 55.0684 25.5476 56.4869C28.6401 57.9054 32.0026 58.6385 35.4049 58.6359C39.0158 58.6359 42.4449 57.825 45.514 56.3705L54.5576 58.905C55.2061 59.086 55.8922 59.0834 56.5393 58.8975C57.1865 58.7115 57.7693 58.3496 58.2228 57.8519C58.6763 57.3543 58.9828 56.7405 59.1081 56.0789C59.2333 55.4173 59.1724 54.734 58.9322 54.105L56.0376 46.5341C58.0077 43.009 59.0418 39.0379 59.0413 34.9996C59.0413 27.945 55.9503 21.6105 51.0449 17.2796C51.5758 19.3305 51.8703 21.4796 51.8994 23.6868C54.1103 26.905 55.4049 30.8032 55.4049 34.9996C55.4049 38.8177 54.3358 42.385 52.4776 45.4214L52.0122 46.185L55.5394 55.4032L45.1394 52.4941L44.5031 52.8141C41.7758 54.2105 38.6849 54.9996 35.4049 54.9996C31.2819 54.9999 27.2596 53.726 23.8885 51.3523C21.7257 51.2957 19.5772 50.982 17.4885 50.4177Z" fill="#6C729F"/>
</svg>
