<svg width="30" height="30" viewBox="0 0 30 30" fill="none" xmlns="http://www.w3.org/2000/svg">
<g filter="url(#filter0_d_647_78709)">
<path d="M20.938 9.18176C20.5472 9.3479 20.1372 9.46445 19.7175 9.5287C19.9127 9.49463 20.1914 9.14459 20.3061 9.0021C20.4831 8.78511 20.6186 8.53727 20.7057 8.27106C20.7057 8.24938 20.7211 8.2215 20.7057 8.20601C20.6954 8.20149 20.6843 8.19915 20.6731 8.19915C20.6619 8.19915 20.6508 8.20149 20.6406 8.20601C20.1881 8.4473 19.7074 8.63147 19.2095 8.75429C19.1923 8.75955 19.174 8.76002 19.1565 8.75566C19.139 8.75129 19.1231 8.74225 19.1104 8.72951C19.0722 8.68325 19.0308 8.63977 18.9865 8.59941C18.7757 8.42373 18.5383 8.28258 18.2833 8.18123C17.9472 8.04235 17.5838 7.98196 17.2208 8.00466C16.8679 8.02733 16.5237 8.12446 16.211 8.28965C15.8978 8.4538 15.6207 8.67923 15.3963 8.95254C15.1619 9.23962 14.9937 9.57492 14.9038 9.93449C14.8275 10.2723 14.8191 10.6218 14.879 10.9629C14.879 11.0218 14.879 11.028 14.8294 11.0218C12.8624 10.712 11.23 10.0243 9.90731 8.51577C9.84845 8.45072 9.81748 8.45072 9.77101 8.51577C9.19795 9.38931 9.47984 10.7925 10.2016 11.4678C10.3007 11.5607 10.3998 11.6506 10.5113 11.7342C10.1807 11.7102 9.85825 11.6196 9.56347 11.4678C9.50462 11.4337 9.47674 11.4678 9.47054 11.5174C9.4665 11.6116 9.47169 11.706 9.48603 11.7993C9.54352 12.2417 9.7171 12.661 9.98913 13.0147C10.2612 13.3683 10.622 13.6437 11.0348 13.8127C11.1346 13.855 11.2384 13.8872 11.3446 13.9087C11.0387 13.9705 10.7244 13.9799 10.4153 13.9366C10.3472 13.9366 10.3224 13.9583 10.3472 14.0234C10.7592 15.1416 11.642 15.4731 12.3049 15.662C12.3947 15.6775 12.4845 15.6775 12.5713 15.6992C12.5713 15.6992 12.5713 15.6992 12.5558 15.7147C12.3359 16.0492 11.5738 16.3001 11.2207 16.424C10.5703 16.6528 9.87846 16.7394 9.19176 16.678C9.08334 16.678 9.06166 16.678 9.01829 16.678C8.97492 16.678 9.01829 16.7214 9.04927 16.7493C9.18644 16.84 9.32808 16.9237 9.47364 17.0002C9.90468 17.23 10.3597 17.4118 10.8304 17.5423C13.2682 18.2176 16.0158 17.7219 17.8465 15.9036C19.2838 14.4725 19.7888 12.4962 19.7888 10.5323C19.7888 10.4549 19.8786 10.4115 19.9343 10.3713C20.3048 10.0874 20.6333 9.75265 20.9101 9.37692C20.9553 9.32277 20.9852 9.25754 20.9968 9.18796C21.0092 9.15079 20.9844 9.16008 20.938 9.18176Z" fill="#404040"/>
<path d="M25.5 13C25.5 18.799 20.799 23.5 15 23.5C9.20101 23.5 4.5 18.799 4.5 13C4.5 7.20101 9.20101 2.5 15 2.5C20.799 2.5 25.5 7.20101 25.5 13Z" stroke="#404040"/>
</g>
<defs>
<filter id="filter0_d_647_78709" x="0" y="0" width="30" height="30" filterUnits="userSpaceOnUse" color-interpolation-filters="sRGB">
<feFlood flood-opacity="0" result="BackgroundImageFix"/>
<feColorMatrix in="SourceAlpha" type="matrix" values="0 0 0 0 0 0 0 0 0 0 0 0 0 0 0 0 0 0 127 0" result="hardAlpha"/>
<feOffset dy="2"/>
<feGaussianBlur stdDeviation="2"/>
<feComposite in2="hardAlpha" operator="out"/>
<feColorMatrix type="matrix" values="0 0 0 0 0 0 0 0 0 0 0 0 0 0 0 0 0 0 0.25 0"/>
<feBlend mode="normal" in2="BackgroundImageFix" result="effect1_dropShadow_647_78709"/>
<feBlend mode="normal" in="SourceGraphic" in2="effect1_dropShadow_647_78709" result="shape"/>
</filter>
</defs>
</svg>
